<svg width="42" height="48" viewBox="0 0 42 48" fill="none" xmlns="http://www.w3.org/2000/svg">
<path d="M19 46.689V40.347L15.643 42.339L14 41.305V39.076L19 36.09V31.922L15 34.373V29.957L11 32.051V38.041L9.347 39.271L8 38.16V34.148L2.426 37.27L0 36.271V33.742L5.685 30.572L2 28.75V26.43L4.123 25.303L9.337 28.371L12.949 26.287L12.867 26.222L9.202 24.099L12.77 21.871L9.193 19.788L3.98 22.84L2 21.871V19.564L5.542 17.586L0 14.533V12.004L2.321 10.89L8 14.087V10.011L9.485 8.884L11.428 10.064L11.372 16.169L15.045 18.291L15.078 13.98L19 16.079V11.912L14 8.924V6.71L15.643 5.66L19 7.652V1.324L20.994 0L23 1.324V7.652L26.906 5.621L29 6.84V8.832L23 11.912V16.079L27 13.812V18.346L31 16.262V9.738L32.455 8.872L34 9.737V13.904L39.842 10.824L42 12.042V14.401L36.505 17.571L40 19.525V21.779L38.17 22.775L32.843 19.617L29.164 21.963L32.713 24.191L29.054 26.313L32.826 28.305L38.215 25.319L40 26.535V28.685L36.68 30.572L42 33.742V36.232L39.478 37.269L34 34.281V38.236L32.48 39.285L31 38.236V32.234L27 30.021V34.189L23 31.921V36.089L28 39.075V41.434L26.353 42.338L23 40.348V46.69L20.994 48L19 46.689ZM17.534 24.092L19.42 27H22.934L24.547 24.092L22.843 21H19.329L17.534 24.092Z" fill="white"/>
</svg>
